<svg xmlns="http://www.w3.org/2000/svg" viewBox="0 0 498 268">
  <g fill="none" fill-rule="evenodd">
    <path fill="#C4362F" d="M249.048497 258.972163C249.727691 260.171956 249.70852 261.638071 248.9992 262.824413 248.287142 264.005375 246.994482 264.731707 245.597752 264.731707L212.136483 264.731707C210.89312 264.731707 209.723701 264.158712 208.978778 263.179509L181.682292 227.355196C180.784003 226.176923 180.641592 224.608584 181.309831 223.293116 181.97807 221.983028 183.347414 221.154472 184.842736 221.154472L225.369815 221.154472C226.804887 221.154472 228.124934 221.918465 228.82056 223.15323L249.048497 258.972163M422.764798 87.7992803C422.603695 88.8490652 422.033006 89.7889249 421.178337 90.4100018L376.571733 122.8544C375.296557 123.78052 373.595411 123.854719 372.246509 123.044021 370.897607 122.230575 370.154892 120.686127 370.365146 119.116946L372.890924 100.2483 146.788745 73.1847358 174.662411 123.755786C175.339592 124.9842 175.317748 126.481929 174.61053 127.691106 173.903312 128.900282 172.614483 129.642276 171.219161 129.642276L113.986398 129.642276C112.741258 129.642276 111.567113 129.045933 110.824398 128.034622 92.584185 103.241011 75.2750971 79.9643675 62.6380158 62.9699443 53.4632981 50.6308498 46.8334723 41.7159227 44.5889432 38.5885531 37.2355162 28.3435321 36.0995988 17.5214042 41.5470874 9.64526954 47.7782498.634158 61.0570153-2.33656831 76.1952995 1.89554873 98.3975701 8.10356976 335.039752 52.5600356 378.188231 60.6477761L380.86146 40.6469009C381.074444 39.0529867 382.226745 37.7448778 383.774979 37.340903 385.325943 36.9369282 386.961555 37.5167832 387.917255 38.8056552L422.027544 84.8313021C422.658306 85.6804736 422.923172 86.7522435 422.764798 87.7992803"/>
    <path fill="#F5E73B" d="M68.7154658,57.7246031 C59.5680806,45.4753251 52.959361,36.6234574 50.7537247,33.5625056 C45.3679321,26.0920326 44.2896817,18.9169865 47.7919482,13.8755798 C52.0558144,7.73452817 62.0466917,5.96470172 73.8665,9.25543004 C97.2249527,15.7575591 351.577401,63.2529173 380.49908,68.6471952 C381.558222,68.8441465 382.655581,68.5979574 383.526371,67.9633364 C384.39716,67.3314509 384.973137,66.3658424 385.117814,65.2990227 L387.058664,50.8586613 L413.002188,85.7135743 L379.074152,110.285987 L380.911272,96.6389017 C381.050489,95.5939656 380.763866,94.5353522 380.116915,93.6983091 C379.472695,92.8640014 378.522743,92.3223853 377.474519,92.1965553 L139.836317,63.8765965 C138.370443,63.7015287 136.929136,64.3635039 136.104752,65.5944497 C135.283098,66.82266 135.214854,68.4092123 135.932778,69.7030731 L164.286669,120.926829 L115.735373,120.926829 C97.9237681,96.8276467 81.0839534,74.2821913 68.7154658,57.7246031"/>
    <path fill="#F5E73B" d="M192.88 227.691L222.937 227.691 238.648 257.106 214.083 257.106 192.88 227.691"/>
    <path fill="#C4362F" d="M291.959875 258.207028C293.691346 258.207028 295.405502 257.85976 297.102344 257.165223 297.794932 256.887408 298.340345 256.809273 298.738584 256.930817 299.136822 257.05236 299.474459 257.408311 299.751494 257.998667L301.933147 262.686792C302.175554 263.311875 302.227498 263.78937 302.08898 264.119275 301.950462 264.449179 301.586853 264.80513 300.998153 265.187125 298.19317 267.062375 294.557082 268 290.089887 268 284.54918 268 280.220503 266.445974 277.103855 263.33792 273.987208 260.229867 272.428884 255.428881 272.428884 248.934959 272.428884 242.406312 273.952578 237.596643 276.999967 234.505953 280.047356 231.415264 284.324089 229.869919 289.830166 229.869919 294.228102 229.869919 297.812247 230.79018 300.5826 232.630703 301.1713 233.012698 301.534909 233.368649 301.673427 233.698554 301.811945 234.028459 301.760001 234.505953 301.517594 235.131036L299.387885 239.767071C299.145479 240.357427 298.8165 240.713378 298.400947 240.834922 297.985394 240.956465 297.431323 240.87833 296.738735 240.600515 295.215041 239.975432 293.552829 239.66289 291.752099 239.66289 288.912486 239.66289 286.895323 240.357427 285.700608 241.746501 284.505893 243.135576 283.908536 245.531728 283.908536 248.934959 283.908536 252.303464 284.531865 254.690935 285.778524 256.097372 287.025183 257.50381 289.085634 258.207028 291.959875 258.207028zM317.568329 247.580612L321.308306 247.580612C322.935889 247.580612 324.104632 247.268071 324.814535 246.642987 325.524438 246.017904 325.879389 245.045552 325.879389 243.725932 325.879389 242.232677 325.533095 241.216917 324.840507 240.678651 324.147919 240.140385 322.970518 239.871251 321.308306 239.871251L317.568329 239.871251 317.568329 247.580612zM308.218387 230.495002L321.464139 230.495002C326.693181 230.495002 330.623619 231.510762 333.255455 233.542283 335.887291 235.573804 337.203209 238.968354 337.203209 243.725932 337.203209 248.969686 334.986926 252.633369 330.554361 254.71698L336.787656 265.030854C337.168579 265.655938 337.255153 266.202886 337.047376 266.671698 336.8396 267.14051 336.406732 267.374917 335.748773 267.374917L328.164931 267.374917C327.02216 267.374917 326.156424 266.871377 325.567725 265.864299L320.21748 256.435959 317.568329 256.435959 317.568329 265.499667C317.568329 266.749833 316.945 267.374917 315.698341 267.374917L308.218387 267.374917C306.971728 267.374917 306.348398 266.749833 306.348398 265.499667L306.348398 232.370252C306.348398 231.120085 306.971728 230.495002 308.218387 230.495002zM362.603886 253.779355L362.603886 265.499667C362.603886 266.749833 361.980557 267.374917 360.733898 267.374917L353.150055 267.374917C351.903396 267.374917 351.280067 266.749833 351.280067 265.499667L351.280067 253.779355 339.852359 232.839064C339.540694 232.248708 339.514722 231.710441 339.774443 231.224266 340.034164 230.73809 340.475689 230.495002 341.099018 230.495002L348.994525 230.495002C350.137296 230.495002 350.968402 231.067995 351.487843 232.213981L355.175876 240.496335 356.838088 245.028189 357.045865 245.028189 358.708077 240.496335 362.39611 232.213981C362.915551 231.067995 363.746657 230.495002 364.889428 230.495002L372.784935 230.495002C373.408264 230.495002 373.84979 230.73809 374.10951 231.224266 374.369231 231.710441 374.343259 232.248708 374.031594 232.839064L362.603886 253.779355zM388.939558 248.205695L392.471759 248.205695C394.064712 248.205695 395.207483 247.884472 395.900071 247.242025 396.592659 246.599579 396.938953 245.531728 396.938953 244.038473 396.938953 242.545219 396.592659 241.477368 395.900071 240.834922 395.207483 240.192475 394.064712 239.871251 392.471759 239.871251L388.939558 239.871251 388.939558 248.205695zM387.06957 267.374917L379.589615 267.374917C378.342956 267.374917 377.719627 266.749833 377.719627 265.499667L377.719627 232.370252C377.719627 231.120085 378.342956 230.495002 379.589615 230.495002L392.627591 230.495002C397.822004 230.495002 401.726471 231.554171 404.340991 233.672509 406.955512 235.790847 408.262773 239.246168 408.262773 244.038473 408.262773 248.830779 406.955512 252.2861 404.340991 254.404438 401.726471 256.522776 397.822004 257.581945 392.627591 257.581945L388.939558 257.581945 388.939558 265.499667C388.939558 266.749833 388.316229 267.374917 387.06957 267.374917zM411.067756 238.621085L411.067756 232.370252C411.067756 231.120085 411.691085 230.495002 412.937744 230.495002L437.55926 230.495002C438.805919 230.495002 439.429248 231.120085 439.429248 232.370252L439.429248 238.621085C439.429248 239.871251 438.805919 240.496335 437.55926 240.496335L430.910412 240.496335 430.910412 265.499667C430.910412 266.749833 430.287082 267.374917 429.040423 267.374917L421.456581 267.374917C420.209922 267.374917 419.586592 266.749833 419.586592 265.499667L419.586592 240.496335 412.937744 240.496335C411.691085 240.496335 411.067756 239.871251 411.067756 238.621085zM459.271904 229.869919C464.604835 229.869919 468.760365 231.423945 471.738494 234.531998 474.716624 237.640052 476.205689 242.441038 476.205689 248.934959 476.205689 255.428881 474.716624 260.229867 471.738494 263.33792 468.760365 266.445974 464.604835 268 459.271904 268 453.938974 268 449.783444 266.445974 446.805314 263.33792 443.827185 260.229867 442.338119 255.428881 442.338119 248.934959 442.338119 242.441038 443.827185 237.640052 446.805314 234.531998 449.783444 231.423945 453.938974 229.869919 459.271904 229.869919zM459.271904 258.311209C461.107263 258.311209 462.475126 257.581945 463.37549 256.123417 464.275855 254.66489 464.726037 252.268737 464.726037 248.934959 464.726037 245.601182 464.275855 243.205029 463.37549 241.746501 462.475126 240.287974 461.107263 239.55871 459.271904 239.55871 457.436545 239.55871 456.068683 240.287974 455.168318 241.746501 454.267954 243.205029 453.817771 245.601182 453.817771 248.934959 453.817771 252.268737 454.267954 254.66489 455.168318 256.123417 456.068683 257.581945 457.436545 258.311209 459.271904 258.311209zM41.1262904 193.912746C44.7722375 193.912746 48.3817258 193.178521 51.9547551 191.710072 53.4131336 191.122692 54.5616072 190.957492 55.4001757 191.21447 56.2387442 191.471448 56.949704 192.224029 57.5330551 193.472211L62.1269493 203.384246C62.6373825 204.705851 62.7467609 205.715411 62.4550846 206.412924 62.1634082 207.110437 61.3977592 207.863018 60.1581375 208.670665 54.2517022 212.635479 46.5952119 214.617886 37.1886668 214.617886 25.5216335 214.617886 16.4067648 211.332231 9.84405886 204.760918 3.28135295 198.189605 0 188.038948 0 174.308943 0 160.505517 3.20843344 150.336502 9.625302 143.801901 16.0421706 137.267301 25.0476609 134 36.6417747 134 45.9024824 134 53.4495942 135.945696 59.28311 139.837087 60.5227317 140.644734 61.2883807 141.397316 61.5800571 142.094829 61.8717335 142.792342 61.762355 143.801901 61.2519218 145.123506L56.7674061 154.925408C56.2569729 156.173589 55.5642434 156.926171 54.6892159 157.183149 53.8141884 157.440127 52.6474846 157.274927 51.1891061 156.687547 47.9806726 155.365943 44.4805628 154.70514 40.6887766 154.70514 34.7094218 154.70514 30.4618933 156.173589 27.9461893 159.110489 25.4304854 162.047389 24.1726334 167.11354 24.1726334 174.308943 24.1726334 181.430924 25.4851746 186.47872 28.110257 189.45233 30.7353393 192.425941 35.0740177 193.912746 41.1262904 193.912746zM105.112673 134C116.342193 134 125.092467 137.285656 131.363497 143.856968 137.634526 150.428281 140.770042 160.578938 140.770042 174.308943 140.770042 188.038948 137.634526 198.189605 131.363497 204.760918 125.092467 211.332231 116.342193 214.617886 105.112673 214.617886 93.8831534 214.617886 85.1328789 211.332231 78.8618493 204.760918 72.5908198 198.189605 69.4553042 188.038948 69.4553042 174.308943 69.4553042 160.578938 72.5908198 150.428281 78.8618493 143.856968 85.1328789 137.285656 93.8831534 134 105.112673 134zM105.112673 194.133013C108.977377 194.133013 111.857677 192.591141 113.753569 189.507397 115.649461 186.423653 116.597408 181.357501 116.597408 174.308943 116.597408 167.260385 115.649461 162.194233 113.753569 159.110489 111.857677 156.026745 108.977377 154.484873 105.112673 154.484873 101.247969 154.484873 98.3676691 156.026745 96.4717769 159.110489 94.5758846 162.194233 93.6279376 167.260385 93.6279376 174.308943 93.6279376 181.357501 94.5758846 186.423653 96.4717769 189.507397 98.3676691 192.591141 101.247969 194.133013 105.112673 194.133013zM216.24116 139.286419L216.24116 209.331467C216.24116 211.974677 214.928618 213.296281 212.303536 213.296281L197.099934 213.296281C194.839446 213.296281 193.271689 212.488635 192.396662 210.87334L173.146058 175.630548 173.146058 209.331467C173.146058 211.974677 171.833516 213.296281 169.208434 213.296281L154.11421 213.296281C151.489128 213.296281 150.176587 211.974677 150.176587 209.331467L150.176587 139.286419C150.176587 136.643209 151.489128 135.321605 154.11421 135.321605L169.317812 135.321605C171.578301 135.321605 173.146058 136.129251 174.021085 137.744547L193.271689 172.987338 193.271689 139.286419C193.271689 136.643209 194.58423 135.321605 197.209313 135.321605L212.303536 135.321605C214.928618 135.321605 216.24116 136.643209 216.24116 139.286419zM269.727213 213.296281L250.257852 213.296281C247.924446 213.296281 246.356687 212.121521 245.554579 209.772002L223.569515 140.057355C223.132001 138.662327 223.18669 137.524279 223.733582 136.643209 224.280474 135.76214 225.210191 135.321605 226.522732 135.321605L243.367011 135.321605C245.992093 135.321605 247.596311 136.533076 248.179662 138.956018L256.164287 170.894798 259.773776 188.516194 260.211289 188.516194 263.820778 170.894798 271.805403 138.956018C272.388754 136.533076 273.992972 135.321605 276.618054 135.321605L293.462333 135.321605C294.774874 135.321605 295.70459 135.76214 296.251483 136.643209 296.798375 137.524279 296.853064 138.662327 296.41555 140.057355L274.430485 209.772002C273.628377 212.121521 272.060619 213.296281 269.727213 213.296281zM351.761037 183.229775L327.15089 183.229775 327.15089 193.472211 354.057984 193.472211C356.683066 193.472211 357.995607 194.793816 357.995607 197.437025L357.995607 209.331467C357.995607 211.974677 356.683066 213.296281 354.057984 213.296281L307.681529 213.296281C305.056446 213.296281 303.743905 211.974677 303.743905 209.331467L303.743905 139.286419C303.743905 136.643209 305.056446 135.321605 307.681529 135.321605L353.401713 135.321605C356.026796 135.321605 357.339337 136.643209 357.339337 139.286419L357.339337 151.180861C357.339337 153.82407 356.026796 155.145675 353.401713 155.145675L327.15089 155.145675 327.15089 164.286774 351.761037 164.286774C354.3132 164.286774 355.589282 165.608379 355.589282 168.251588L355.589282 179.375094C355.589282 181.944881 354.3132 183.229775 351.761037 183.229775zM391.027894 171.445466L398.903141 171.445466C402.330331 171.445466 404.791346 170.784664 406.286185 169.463059 407.781024 168.141455 408.528443 166.085624 408.528443 163.295571 408.528443 160.138403 407.799253 157.990796 406.340874 156.852748 404.882496 155.7147 402.403251 155.145675 398.903141 155.145675L391.027894 155.145675 391.027894 171.445466zM371.339776 135.321605L399.231276 135.321605C410.242039 135.321605 418.518339 137.469212 424.06018 141.764428 429.602021 146.059643 432.372941 153.236691 432.372941 163.295571 432.372941 174.382366 427.706127 182.128438 418.372502 186.533786L431.497913 208.340264C432.300021 209.661869 432.482319 210.818273 432.044806 211.809476 431.607292 212.80068 430.695806 213.296281 429.310345 213.296281L413.341094 213.296281C410.934768 213.296281 409.111794 212.231655 407.872172 210.102403L396.606194 190.168199 391.027894 190.168199 391.027894 209.331467C391.027894 211.974677 389.715353 213.296281 387.09027 213.296281L371.339776 213.296281C368.714694 213.296281 367.402152 211.974677 367.402152 209.331467L367.402152 139.286419C367.402152 136.643209 368.714694 135.321605 371.339776 135.321605zM438.279376 152.502466L438.279376 139.286419C438.279376 136.643209 439.591917 135.321605 442.217 135.321605L494.062376 135.321605C496.687459 135.321605 498 136.643209 498 139.286419L498 152.502466C498 155.145675 496.687459 156.46728 494.062376 156.46728L480.061937 156.46728 480.061937 209.331467C480.061937 211.974677 478.749396 213.296281 476.124314 213.296281L460.155063 213.296281C457.52998 213.296281 456.217439 211.974677 456.217439 209.331467L456.217439 156.46728 442.217 156.46728C439.591917 156.46728 438.279376 155.145675 438.279376 152.502466z"/>
  </g>
</svg>
